<svg width="132" height="40" viewBox="0 0 132 40" fill="none" xmlns="http://www.w3.org/2000/svg">
<path d="M23.23 11.3898H25.23V25.3098H31.23V27.3098H23.23V11.3898ZM37.46 11.3898C38.6467 11.3898 39.8067 11.7417 40.7934 12.401C41.7801 13.0603 42.5492 13.9973 43.0033 15.0937C43.4574 16.1901 43.5762 17.3965 43.3447 18.5603C43.1132 19.7242 42.5418 20.7933 41.7026 21.6324C40.8635 22.4716 39.7944 23.043 38.6305 23.2745C37.4667 23.506 36.2603 23.3872 35.1639 22.9331C34.0675 22.4789 33.1305 21.7099 32.4712 20.7232C31.8119 19.7365 31.46 18.5765 31.46 17.3898C31.46 16.6019 31.6152 15.8216 31.9167 15.0937C32.2182 14.3657 32.6602 13.7043 33.2174 13.1472C33.7745 12.59 34.4359 12.148 35.1639 11.8465C35.8918 11.545 36.6721 11.3898 37.46 11.3898ZM37.46 21.3898C38.2511 21.3898 39.0245 21.1552 39.6823 20.7157C40.3401 20.2761 40.8528 19.6514 41.1555 18.9205C41.4583 18.1896 41.5375 17.3854 41.3831 16.6094C41.2288 15.8335 40.8478 15.1208 40.2884 14.5614C39.729 14.002 39.0163 13.621 38.2404 13.4667C37.4644 13.3123 36.6602 13.3915 35.9293 13.6943C35.1984 13.997 34.5736 14.5097 34.1341 15.1675C33.6946 15.8253 33.46 16.5987 33.46 17.3898C33.4653 18.4472 33.889 19.4595 34.6386 20.2053C35.3882 20.9511 36.4026 21.3698 37.46 21.3698V21.3898ZM33.46 25.3298H41.46V27.3298H33.46V25.3298ZM59.06 27.3298H57.06V25.8998C55.7702 26.8026 54.2344 27.2878 52.66 27.2898C51.3175 27.2988 49.9943 26.9698 48.8124 26.3331C47.6304 25.6963 46.6277 24.7724 45.8967 23.6464C45.1656 22.5204 44.7296 21.2285 44.629 19.8897C44.5283 18.551 44.7662 17.2084 45.3207 15.9858C45.8752 14.7631 46.7285 13.6996 47.8019 12.8934C48.8754 12.0871 50.1345 11.5639 51.4632 11.3721C52.792 11.1802 54.1477 11.3259 55.4053 11.7956C56.663 12.2653 57.7823 13.0439 58.66 14.0598L57.19 15.3698C56.5224 14.6234 55.6787 14.056 54.7356 13.7193C53.7926 13.3825 52.7803 13.2871 51.791 13.4418C50.8016 13.5965 49.8668 13.9964 49.0715 14.6049C48.2763 15.2135 47.646 16.0113 47.2382 16.9259C46.8303 17.8404 46.6578 18.8424 46.7364 19.8407C46.815 20.839 47.1421 21.8017 47.6881 22.6411C48.2341 23.4805 48.9814 24.17 49.8621 24.6466C50.7427 25.1232 51.7287 25.3718 52.73 25.3698C53.561 25.3715 54.3826 25.1937 55.1386 24.8485C55.8945 24.5033 56.567 23.9989 57.11 23.3698H51.71V21.3698H59.08L59.06 27.3298ZM66.42 11.4298C67.6067 11.4298 68.7667 11.7817 69.7534 12.441C70.7401 13.1003 71.5092 14.0373 71.9633 15.1337C72.4174 16.2301 72.5362 17.4365 72.3047 18.6003C72.0732 19.7642 71.5018 20.8333 70.6626 21.6724C69.8235 22.5116 68.7544 23.083 67.5905 23.3145C66.4267 23.546 65.2203 23.4272 64.1239 22.9731C63.0275 22.5189 62.0905 21.7499 61.4312 20.7632C60.7719 19.7765 60.42 18.6165 60.42 17.4298C60.4147 16.6368 60.5667 15.8507 60.8671 15.1168C61.1675 14.3829 61.6104 13.7158 62.1702 13.1542C62.73 12.5925 63.3956 12.1474 64.1285 11.8445C64.8614 11.5417 65.647 11.3871 66.44 11.3898L66.42 11.4298ZM66.42 21.4298C67.2111 21.4298 67.9845 21.1952 68.6423 20.7557C69.3001 20.3161 69.8128 19.6914 70.1155 18.9605C70.4183 18.2296 70.4975 17.4254 70.3431 16.6494C70.1888 15.8735 69.8078 15.1608 69.2484 14.6014C68.689 14.042 67.9763 13.661 67.2004 13.5067C66.4244 13.3523 65.6202 13.4315 64.8893 13.7343C64.1584 14.037 63.5336 14.5497 63.0941 15.2075C62.6546 15.8653 62.42 16.6387 62.42 17.4298C62.4358 18.4837 62.8669 19.4888 63.6197 20.2266C64.3724 20.9643 65.386 21.3752 66.44 21.3698L66.42 21.4298ZM62.42 25.3698H70.42V27.3698H62.42V25.3698ZM74.55 11.3898H76.55V27.2898H74.55V11.3898ZM79.32 11.3898H81.32C81.423 11.3789 81.5269 11.3789 81.63 11.3898C82.4676 11.2989 83.315 11.3855 84.1169 11.6438C84.9188 11.9022 85.6574 12.3265 86.2844 12.8892C86.9115 13.4519 87.413 14.1404 87.7563 14.9098C88.0997 15.6792 88.2771 16.5123 88.2771 17.3548C88.2771 18.1973 88.0997 19.0304 87.7563 19.7998C87.413 20.5692 86.9115 21.2577 86.2844 21.8204C85.6574 22.3831 84.9188 22.8074 84.1169 23.0658C83.315 23.3241 82.4676 23.4107 81.63 23.3198H81.32V27.3198H79.32V11.3898ZM81.32 13.3898V21.2998H81.63C82.1949 21.375 82.7693 21.3287 83.3149 21.1638C83.8604 20.999 84.3644 20.7195 84.7931 20.3441C85.2219 19.9687 85.5654 19.506 85.8008 18.987C86.0362 18.468 86.158 17.9047 86.158 17.3348C86.158 16.7649 86.0362 16.2016 85.8008 15.6826C85.5654 15.1636 85.2219 14.7009 84.7931 14.3255C84.3644 13.95 83.8604 13.6706 83.3149 13.5057C82.7693 13.3409 82.1949 13.2946 81.63 13.3698C81.5211 13.3811 81.4137 13.4046 81.31 13.4398L81.32 13.3898ZM95.73 12.5398L94.25 13.7098C93.9947 13.443 93.6685 13.2546 93.3098 13.1668C92.9511 13.079 92.5748 13.0954 92.2251 13.2141C91.8753 13.3327 91.5668 13.5487 91.3356 13.8367C91.1044 14.1247 90.9602 14.4727 90.92 14.8398V14.9998C90.92 15.8798 91.53 16.4698 92.72 16.5498C97.3 16.8298 99.4 18.9798 99.4 21.8198V21.9998C99.2817 23.1238 98.8431 24.1902 98.1363 25.0722C97.4295 25.9542 96.4842 26.6145 95.413 26.9748C94.3417 27.335 93.1895 27.38 92.0934 27.1043C90.9973 26.8287 90.0034 26.244 89.23 25.4198L90.76 24.2398C91.1161 24.6215 91.551 24.9211 92.0345 25.118C92.518 25.3148 93.0385 25.4042 93.56 25.3798C94.5232 25.4306 95.4687 25.1073 96.1991 24.4774C96.9296 23.8476 97.3885 22.9599 97.48 21.9998V21.8598C97.48 19.1898 94.86 18.6998 92.59 18.4798C90.49 18.2798 88.98 16.9698 88.98 15.0798V14.9998C89.054 14.0158 89.5031 13.0978 90.2344 12.4354C90.9657 11.7729 91.9235 11.4165 92.91 11.4398C93.4328 11.4244 93.9529 11.5187 94.437 11.7168C94.921 11.9149 95.3581 12.2123 95.72 12.5898L95.73 12.5398ZM107.23 25.2598C109.72 25.2598 111.69 22.5698 111.69 19.2598V11.2598H113.69V19.2598C113.69 23.6598 110.81 27.2098 107.27 27.2098C103.73 27.2098 100.85 23.6598 100.85 19.2598V11.2598H102.85V19.2598C102.77 22.6198 104.74 25.3098 107.22 25.3098L107.23 25.2598ZM129.04 27.2598H127.04V17.3598L122.43 23.3598L117.82 17.3598V27.2898H115.82V11.3898L122.42 20.0798L129.02 11.3898L129.04 27.2598Z" fill="white"/>
<path d="M13.63 9.00006C13.63 7.55728 13.0569 6.17359 12.0367 5.1534C11.0165 4.1332 9.63278 3.56006 8.19 3.56006C6.74722 3.56006 5.36354 4.1332 4.34334 5.1534C3.32314 6.17359 2.75 7.55728 2.75 9.00006V25.4501L7.23 28.6601V36.4801H9.15V28.6601L13.63 25.4501V9.00006ZM11.71 18.2001L9.15 20.7601V18.3601L11.71 15.8001V18.2001ZM4.71 15.8001L7.27 18.3601V20.7601L4.71 18.2001V15.8001ZM11.71 13.0801L8.19 16.6001L4.67 13.0001V10.6001L8.19 14.1201L11.71 10.6001V13.0801ZM8.19 5.48006C8.96415 5.48348 9.71583 5.74059 10.3299 6.21199C10.944 6.68339 11.3866 7.34309 11.59 8.09006L8.19 11.4801L4.79 8.09006C4.98594 7.33566 5.42537 6.66701 6.04013 6.18787C6.65489 5.70872 7.41059 5.44585 8.19 5.44005V5.48006ZM4.67 24.4801V20.8801L7.23 23.4401V26.3001L4.67 24.4801ZM9.15 26.3101V23.4401L11.71 20.8801V24.4701L9.15 26.3101Z" fill="white"/>
</svg>
